<svg width="325" height="342" viewBox="0 0 325 342" fill="none" xmlns="http://www.w3.org/2000/svg">
<g clip-path="url(#clip0)">
<path d="M162.5 9C162.5 9 107.283 40.6227 8 40.6227C8 190.023 8 235.514 8 235.514L162.5 333L317 235.555C317 235.555 317 190.023 317 40.6636C217.717 40.6227 162.5 9 162.5 9Z" fill="#FFC400"/>
<path d="M162.5 9C162.5 9 107.283 40.6227 8 40.6227C8 190.023 8 235.514 8 235.514L162.5 333L317 235.555C317 235.555 317 190.023 317 40.6636C217.717 40.6227 162.5 9 162.5 9Z" stroke="#C49205" stroke-width="15" stroke-miterlimit="10"/>
<path d="M161.44 264.8C151.36 264.8 142.213 262.28 134 257.24C125.787 252.2 119.16 245.48 114.12 237.08C109.267 228.493 106.84 218.973 106.84 208.52V119.76C106.84 109.68 109.267 100.44 114.12 92.04C119.16 83.4533 125.787 76.64 134 71.6C142.4 66.56 151.547 64.04 161.44 64.04C171.707 64.04 180.947 66.56 189.16 71.6C197.56 76.4533 204.187 83.08 209.04 91.48C213.893 99.88 216.32 109.307 216.32 119.76V132.64C216.32 133.387 215.853 133.76 214.92 133.76H183.56C182.813 133.76 182.44 133.387 182.44 132.64V122C182.44 114.907 180.387 109.027 176.28 104.36C172.36 99.6933 167.413 97.36 161.44 97.36C156.027 97.36 151.173 99.6 146.88 104.08C142.773 108.56 140.72 113.787 140.72 119.76V208.52C140.72 214.68 142.773 220 146.88 224.48C150.987 228.773 155.84 230.92 161.44 230.92C167.413 230.92 172.36 228.773 176.28 224.48C180.387 220.187 182.44 214.867 182.44 208.52V194.8H162.84C161.907 194.8 161.44 194.333 161.44 193.4V162.04C161.44 161.107 161.907 160.64 162.84 160.64H215.2C215.947 160.64 216.32 161.107 216.32 162.04V208.52C216.32 218.973 213.8 228.493 208.76 237.08C203.907 245.48 197.373 252.2 189.16 257.24C180.947 262.28 171.707 264.8 161.44 264.8Z" fill="black"/>
</g>
<defs>
<clipPath id="clip0">
<rect width="325" height="342" fill="white"/>
</clipPath>
</defs>
</svg>
